<?xml version="1.0" encoding="utf-8"?>
<!-- Generator: Adobe Illustrator 26.0.1, SVG Export Plug-In . SVG Version: 6.00 Build 0)  -->
<svg version="1.1" id="Laag_2" xmlns="http://www.w3.org/2000/svg" xmlns:xlink="http://www.w3.org/1999/xlink" x="0px" y="0px"
	 viewBox="0 0 291.9 291.23" style="enable-background:new 0 0 291.9 291.23;" xml:space="preserve">
<style type="text/css">
	.st0{clip-path:url(#SVGID_00000080898295667953100110000016777274606422537114_);}
	.st1{clip-path:url(#SVGID_00000096055051495255670070000017738441762631006096_);fill:none;stroke:#000000;stroke-miterlimit:10;}
	.st2{clip-path:url(#SVGID_00000065791912554011266230000014303682035853849758_);fill:none;stroke:#000000;stroke-miterlimit:10;}
	.st3{clip-path:url(#SVGID_00000161590289105039231110000008391872527630656687_);fill:none;stroke:#000000;stroke-miterlimit:10;}
	.st4{clip-path:url(#SVGID_00000031179323196055080800000012618982948299528116_);fill:none;stroke:#000000;}
	.st5{clip-path:url(#SVGID_00000031179323196055080800000012618982948299528116_);}
	.st6{clip-path:url(#SVGID_00000031179323196055080800000012618982948299528116_);fill:none;stroke:#000000;stroke-width:0.181;}
	.st7{clip-path:url(#SVGID_00000043441659733318083710000017290395947104001435_);fill:none;stroke:#000000;}
	.st8{fill:none;stroke:#000000;}
	.st9{clip-path:url(#SVGID_00000060002492095749902840000016813088170962797954_);fill:none;stroke:#000000;}
	.st10{clip-path:url(#SVGID_00000044880969937186540460000001194310437064722078_);fill:none;stroke:#000000;}
	.st11{clip-path:url(#SVGID_00000044880969937186540460000001194310437064722078_);}
	.st12{clip-path:url(#SVGID_00000044880969937186540460000001194310437064722078_);fill:none;stroke:#000000;stroke-width:0.5;}
</style>
<g>
	<defs>
		<rect id="SVGID_00000119830272031203704160000002362713223016596105_" x="87.24" y="103.71" width="117.42" height="83.82"/>
	</defs>
	<clipPath id="SVGID_00000067205135834662320720000001270614589016561570_">
		<use xlink:href="#SVGID_00000119830272031203704160000002362713223016596105_"  style="overflow:visible;"/>
	</clipPath>
	
		<path style="clip-path:url(#SVGID_00000067205135834662320720000001270614589016561570_);fill:none;stroke:#000000;stroke-miterlimit:10;" d="
		M147.72,177.69c0,0,52.21-9.42,39.82-61.86C187.53,115.83,136.04,121.57,147.72,177.69z M146.22,186.57c0,0,52.42,8.22,57.89-45.39
		C204.12,141.18,153.59,129.72,146.22,186.57z M145,177.93c0,0-38.23-36.78,1.16-73.56C146.16,104.38,185.83,137.69,145,177.93z
		 M143.05,178.22c0,0-52.21-9.42-39.82-61.86C103.23,116.36,154.72,122.09,143.05,178.22z M145.68,186.47
		c0,0-52.41,8.22-57.89-45.39C87.78,141.08,138.31,129.62,145.68,186.47z"/>
</g>
</svg>
