<?xml version="1.0" encoding="utf-8"?>
<!-- Generator: Adobe Illustrator 26.0.1, SVG Export Plug-In . SVG Version: 6.00 Build 0)  -->
<svg version="1.1" id="Laag_2" xmlns="http://www.w3.org/2000/svg" xmlns:xlink="http://www.w3.org/1999/xlink" x="0px" y="0px"
	 viewBox="0 0 291.9 291.23" style="enable-background:new 0 0 291.9 291.23;" xml:space="preserve">
<style type="text/css">
	.st0{clip-path:url(#SVGID_00000124874746783642139110000003234944515856141706_);}
	.st1{clip-path:url(#SVGID_00000142137914655634760470000013887658609760027574_);fill:none;stroke:#000000;stroke-miterlimit:10;}
	.st2{clip-path:url(#SVGID_00000023252411244711992910000007799783041529406621_);fill:none;stroke:#000000;stroke-miterlimit:10;}
	.st3{clip-path:url(#SVGID_00000129919846973056921030000004458431284089319587_);fill:none;stroke:#000000;stroke-miterlimit:10;}
	.st4{clip-path:url(#SVGID_00000079470652607454644730000004673523369486433187_);fill:none;stroke:#000000;}
	.st5{clip-path:url(#SVGID_00000079470652607454644730000004673523369486433187_);}
	.st6{clip-path:url(#SVGID_00000079470652607454644730000004673523369486433187_);fill:none;stroke:#000000;stroke-width:0.181;}
	.st7{clip-path:url(#SVGID_00000110463713584263188890000005769324736526783161_);fill:none;stroke:#000000;}
	.st8{fill:none;stroke:#000000;}
	.st9{clip-path:url(#SVGID_00000034059118976365277830000001601040245772671422_);fill:none;stroke:#000000;}
	.st10{clip-path:url(#SVGID_00000097481622387318384100000014917472423133892011_);fill:none;stroke:#000000;}
	.st11{clip-path:url(#SVGID_00000097481622387318384100000014917472423133892011_);}
	.st12{clip-path:url(#SVGID_00000097481622387318384100000014917472423133892011_);fill:none;stroke:#000000;stroke-width:0.5;}
</style>
<g>
	<g>
		<defs>
			<rect id="SVGID_00000054230351340863400710000002837459450924063628_" x="86.82" y="97.86" width="118.25" height="95.51"/>
		</defs>
		<clipPath id="SVGID_00000152252945036481326730000010615961069310903203_">
			<use xlink:href="#SVGID_00000054230351340863400710000002837459450924063628_"  style="overflow:visible;"/>
		</clipPath>
		
			<path style="clip-path:url(#SVGID_00000152252945036481326730000010615961069310903203_);fill:none;stroke:#000000;stroke-miterlimit:10;" d="
			M145.8,117.24c0,0,32.51-46.42,57.57,6.35c0,0,9.29,29.13-23.56,48.84l-34,20.36l-39.58-24.3c0,0-35.48-21.02-9.2-59.13
			C97.02,109.35,124.93,80.44,145.8,117.24z"/>
		
			<path style="clip-path:url(#SVGID_00000152252945036481326730000010615961069310903203_);fill:none;stroke:#000000;stroke-miterlimit:10;" d="
			M145.82,122.34c0,0,26.66-38.07,47.21,5.21c0,0,7.61,23.88-19.32,40.04l-27.88,16.7l-32.46-19.93c0,0-29.09-17.24-7.54-48.49
			C105.83,115.88,128.72,92.17,145.82,122.34z"/>
		
			<path style="clip-path:url(#SVGID_00000152252945036481326730000010615961069310903203_);fill:none;stroke:#000000;stroke-miterlimit:10;" d="
			M145.86,128.46c0,0,19.65-28.06,34.8,3.84c0,0,5.61,17.6-14.24,29.52l-20.56,12.31l-23.93-14.69c0,0-21.45-12.71-5.56-35.74
			C116.37,123.7,133.25,106.22,145.86,128.46z"/>
		
			<path style="clip-path:url(#SVGID_00000152252945036481326730000010615961069310903203_);fill:none;stroke:#000000;stroke-miterlimit:10;" d="
			M145.89,135.15c0,0,11.96-17.08,21.18,2.34c0,0,3.42,10.72-8.67,17.97l-12.51,7.49L131.33,154c0,0-13.05-7.74-3.38-21.76
			C127.95,132.25,138.22,121.61,145.89,135.15z"/>
	</g>
</g>
</svg>
