<?xml version="1.0" encoding="utf-8"?>
<!-- Generator: Adobe Illustrator 26.0.1, SVG Export Plug-In . SVG Version: 6.00 Build 0)  -->
<svg version="1.1" id="Laag_2" xmlns="http://www.w3.org/2000/svg" xmlns:xlink="http://www.w3.org/1999/xlink" x="0px" y="0px"
	 viewBox="0 0 291.9 291.23" style="enable-background:new 0 0 291.9 291.23;" xml:space="preserve">
<style type="text/css">
	.st0{clip-path:url(#SVGID_00000054259038493382076070000009226048232935174535_);}
	.st1{clip-path:url(#SVGID_00000167374557211122516330000018054901345554064538_);fill:none;stroke:#000000;stroke-miterlimit:10;}
	.st2{clip-path:url(#SVGID_00000036969281830612651030000005995075303384572805_);fill:none;stroke:#000000;stroke-miterlimit:10;}
	.st3{clip-path:url(#SVGID_00000070089939473554121660000004707386948655668634_);fill:none;stroke:#000000;stroke-miterlimit:10;}
	.st4{clip-path:url(#SVGID_00000039829628767747032690000015982110125727334828_);fill:none;stroke:#000000;}
	.st5{clip-path:url(#SVGID_00000039829628767747032690000015982110125727334828_);}
	.st6{clip-path:url(#SVGID_00000039829628767747032690000015982110125727334828_);fill:none;stroke:#000000;stroke-width:0.181;}
	.st7{clip-path:url(#SVGID_00000022552692008022160450000004281595301977138362_);fill:none;stroke:#000000;}
	.st8{fill:none;stroke:#000000;}
	.st9{clip-path:url(#SVGID_00000059300587782733060540000003867140033430274208_);fill:none;stroke:#000000;}
	.st10{clip-path:url(#SVGID_00000183946061927424861270000006208152087701842338_);fill:none;stroke:#000000;}
	.st11{clip-path:url(#SVGID_00000183946061927424861270000006208152087701842338_);}
	.st12{clip-path:url(#SVGID_00000183946061927424861270000006208152087701842338_);fill:none;stroke:#000000;stroke-width:0.5;}
</style>
<g>
	<defs>
		<rect id="SVGID_00000155826165444428694650000012744009062681207713_" x="98.46" y="98.15" width="94.94" height="94.94"/>
	</defs>
	<clipPath id="SVGID_00000149381464170388036450000011278727583981423768_">
		<use xlink:href="#SVGID_00000155826165444428694650000012744009062681207713_"  style="overflow:visible;"/>
	</clipPath>
	<path style="clip-path:url(#SVGID_00000149381464170388036450000011278727583981423768_);fill:none;stroke:#000000;" d="
		M145.94,192.59c25.94,0,46.97-21.03,46.97-46.97s-21.03-46.97-46.97-46.97s-46.97,21.03-46.97,46.97S119.99,192.59,145.94,192.59z"
		/>
	<path style="clip-path:url(#SVGID_00000149381464170388036450000011278727583981423768_);" d="M125.92,139.7
		c2.03,0,3.67-1.64,3.67-3.67c0-2.03-1.64-3.67-3.67-3.67s-3.67,1.64-3.67,3.67C122.25,138.06,123.89,139.7,125.92,139.7"/>
	
		<circle style="clip-path:url(#SVGID_00000149381464170388036450000011278727583981423768_);fill:none;stroke:#000000;stroke-width:0.181;" cx="125.92" cy="136.03" r="3.67"/>
	<path style="clip-path:url(#SVGID_00000149381464170388036450000011278727583981423768_);" d="M165.96,139.7
		c2.03,0,3.67-1.64,3.67-3.67c0-2.03-1.64-3.67-3.67-3.67c-2.03,0-3.67,1.64-3.67,3.67C162.29,138.06,163.93,139.7,165.96,139.7"/>
	
		<circle style="clip-path:url(#SVGID_00000149381464170388036450000011278727583981423768_);fill:none;stroke:#000000;stroke-width:0.181;" cx="165.96" cy="136.03" r="3.67"/>
	<path style="clip-path:url(#SVGID_00000149381464170388036450000011278727583981423768_);fill:none;stroke:#000000;" d="
		M113.05,142.72c0,17.52,14.72,31.72,32.89,31.72s32.89-14.2,32.89-31.72"/>
</g>
</svg>
