<?xml version="1.0" encoding="utf-8"?>
<!-- Generator: Adobe Illustrator 26.0.1, SVG Export Plug-In . SVG Version: 6.00 Build 0)  -->
<svg version="1.1" id="Laag_2" xmlns="http://www.w3.org/2000/svg" xmlns:xlink="http://www.w3.org/1999/xlink" x="0px" y="0px"
	 viewBox="0 0 291.9 291.23" style="enable-background:new 0 0 291.9 291.23;" xml:space="preserve">
<style type="text/css">
	.st0{clip-path:url(#SVGID_00000106129045362332523580000005951201877120600509_);}
	.st1{clip-path:url(#SVGID_00000033341362059016407140000010672375900450933901_);fill:none;stroke:#000000;stroke-miterlimit:10;}
	.st2{clip-path:url(#SVGID_00000147207286701944593260000011428392751876414612_);fill:none;stroke:#000000;stroke-miterlimit:10;}
	.st3{clip-path:url(#SVGID_00000065757634118599103730000010560474062239669910_);fill:none;stroke:#000000;stroke-miterlimit:10;}
	.st4{clip-path:url(#SVGID_00000071521215743378276650000015969097241384803497_);fill:none;stroke:#000000;}
	.st5{clip-path:url(#SVGID_00000071521215743378276650000015969097241384803497_);}
	.st6{clip-path:url(#SVGID_00000071521215743378276650000015969097241384803497_);fill:none;stroke:#000000;stroke-width:0.181;}
	.st7{clip-path:url(#SVGID_00000155109280632690562960000013225000688230237873_);fill:none;stroke:#000000;}
	.st8{fill:none;stroke:#000000;}
	.st9{clip-path:url(#SVGID_00000072999606829582132370000013293211162910392491_);fill:none;stroke:#000000;}
	.st10{clip-path:url(#SVGID_00000039114429814292555160000000688939909581078443_);fill:none;stroke:#000000;}
	.st11{clip-path:url(#SVGID_00000039114429814292555160000000688939909581078443_);}
	.st12{clip-path:url(#SVGID_00000039114429814292555160000000688939909581078443_);fill:none;stroke:#000000;stroke-width:0.5;}
</style>
<g>
	<defs>
		<rect id="SVGID_00000116225402641666552860000010231789055846182059_" x="90.66" y="78.98" width="110.56" height="91.93"/>
	</defs>
	<clipPath id="SVGID_00000047059174025685813770000010985419525059085988_">
		<use xlink:href="#SVGID_00000116225402641666552860000010231789055846182059_"  style="overflow:visible;"/>
	</clipPath>
	
		<path style="clip-path:url(#SVGID_00000047059174025685813770000010985419525059085988_);fill:none;stroke:#000000;stroke-miterlimit:10;" d="
		M164.46,96.7V78.98 M155.73,100.59l-2.66-8.73 M150.58,104.15l-12.53-12.52 M144.91,109.58l-8.53-3.24 M145.4,116.46l-17.62-1.31
		 M164.49,98.1V80.38 M173.22,101.99l2.66-8.73 M178.37,105.55l12.53-12.52 M184.04,110.99l8.53-3.24 M183.56,117.86l17.62-1.31
		 M183.86,125.57l8.72,2.68 M178.82,118.19c0,7.78-6.31,14.09-14.09,14.09s-14.09-6.31-14.09-14.09c0-7.78,6.31-14.09,14.09-14.09
		S178.82,110.41,178.82,118.19z M135.68,170.52c0,0,16.66-32.71,33.76-32.71s25.65,32.71,25.65,32.71 M91.1,170.69
		c0,0,22.19-44.97,44.98-44.97c22.78,0,34.17,44.97,34.17,44.97"/>
</g>
</svg>
