<?xml version="1.0" encoding="utf-8"?>
<!-- Generator: Adobe Illustrator 26.0.1, SVG Export Plug-In . SVG Version: 6.00 Build 0)  -->
<svg version="1.1" id="Laag_2" xmlns="http://www.w3.org/2000/svg" xmlns:xlink="http://www.w3.org/1999/xlink" x="0px" y="0px"
	 viewBox="0 0 291.9 291.23" style="enable-background:new 0 0 291.9 291.23;" xml:space="preserve">
<style type="text/css">
	.st0{clip-path:url(#SVGID_00000043437793114535889230000003964729424522656135_);}
	.st1{clip-path:url(#SVGID_00000053511453561462630000000007548147469978907783_);fill:none;stroke:#000000;stroke-miterlimit:10;}
	.st2{clip-path:url(#SVGID_00000104707420861644772310000010156741184537454247_);fill:none;stroke:#000000;stroke-miterlimit:10;}
	.st3{clip-path:url(#SVGID_00000067924239816162454190000012297979141732027815_);fill:none;stroke:#000000;stroke-miterlimit:10;}
	.st4{clip-path:url(#SVGID_00000029014898421340411480000003642802480107679137_);fill:none;stroke:#000000;}
	.st5{clip-path:url(#SVGID_00000029014898421340411480000003642802480107679137_);}
	.st6{clip-path:url(#SVGID_00000029014898421340411480000003642802480107679137_);fill:none;stroke:#000000;stroke-width:0.181;}
	.st7{clip-path:url(#SVGID_00000125565105736135714160000004411464640632187550_);fill:none;stroke:#000000;}
	.st8{fill:none;stroke:#000000;}
	.st9{clip-path:url(#SVGID_00000119111503267273788110000006254369410027923354_);fill:none;stroke:#000000;}
	.st10{clip-path:url(#SVGID_00000155123030770418714140000015580638749448652679_);fill:none;stroke:#000000;}
	.st11{clip-path:url(#SVGID_00000155123030770418714140000015580638749448652679_);}
	.st12{clip-path:url(#SVGID_00000155123030770418714140000015580638749448652679_);fill:none;stroke:#000000;stroke-width:0.5;}
</style>
<g>
	<defs>
		<rect id="SVGID_1_" x="89.05" y="104.88" width="113.81" height="81.47"/>
	</defs>
	<clipPath id="SVGID_00000159450949173779558340000012414978719097692312_">
		<use xlink:href="#SVGID_1_"  style="overflow:visible;"/>
	</clipPath>
	<path style="clip-path:url(#SVGID_00000159450949173779558340000012414978719097692312_);" d="M182.67,111.14
		c-0.92-0.28-1.51-0.49-2.13-0.63c-5.66-1.29-11.31-2.61-16.99-3.83c-2.18-0.47-4.39-0.88-6.61-1.03c-2.64-0.19-4.72,1.21-5.49,3.32
		c-0.78,2.14-0.01,4.31,2.21,5.99c1.07,0.81,2.21,1.51,3.29,2.31c2.62,1.96,3.36,4.69,1.59,7.37c-0.86,1.3-2.33,2.41-3.78,3.07
		c-6.14,2.8-12.31,2.31-18.32-0.49c-3.92-1.83-6.18-6.63-0.38-9.68c1.73-0.91,3.42-2.06,4.8-3.43c2.68-2.68,1.85-6.41-1.75-7.58
		c-1.74-0.56-3.83-0.7-5.61-0.33c-7.61,1.61-15.17,3.48-22.75,5.27c-0.34,0.08-0.66,0.26-1.08,0.43c0.31,0.62,0.53,1.16,0.83,1.63
		c3.17,4.98,4.57,10.42,4.77,16.3c0.11,3.35-0.53,6.25-2.7,8.88c-2.26,2.74-5.28,3.23-8.01,0.94c-1.11-0.94-2.03-2.11-3.02-3.19
		c-2.96-3.23-6.5-2.93-8.88,0.78c-2.59,4.06-3.39,8.58-2.54,13.21c0.47,2.57,1.48,5.17,2.84,7.41c2,3.3,5.61,3.15,7.8,0.02
		c0.8-1.15,1.59-2.31,2.45-3.42c1.56-2.02,3.68-2.67,6.13-2.24c2.31,0.41,3.27,2.21,3.6,4.23c1.03,6.18,1.67,12.39,0.1,18.59
		c-0.54,2.14-1.17,4.27-1.89,6.86c7.84,1.2,15.44,2.45,23.07,3.45c1.7,0.22,3.53-0.35,5.26-0.75c1.67-0.38,2.48-1.65,2.73-3.32
		c0.25-1.64-0.29-2.92-1.68-3.76c-1.74-1.05-3.56-1.99-5.32-3.01c-3.32-1.92-3.54-5.19-0.5-7.53c2.51-1.94,5.45-2.83,8.54-3.02
		c5-0.31,9.87,0.27,13.96,3.52c2.9,2.31,2.59,5.86-0.53,7.78c-0.92,0.57-1.9,1.06-2.79,1.67c-2.43,1.68-2.7,4.25-0.6,6.35
		c2,1.99,4.45,2.67,7.22,2.03c6.16-1.4,12.32-2.81,18.47-4.22c1.16-0.27,2.31-0.55,3.69-0.88c-0.76-2.74-1.39-5.26-2.16-7.75
		c-1.81-5.89-1.12-11.74,0.37-17.54c0.58-2.28,2.4-3.13,4.76-2.87c2.69,0.3,3.99,2.28,5.37,4.21c2.5,3.51,5.92,3.44,8.35-0.15
		c1.86-2.74,2.43-5.9,2.64-9.08c0.27-3.98-0.51-7.78-3.08-10.98c-2.23-2.76-5.82-2.49-7.66,0.5c-0.4,0.65-0.74,1.34-1.1,2.01
		c-1.53,2.83-3.68,3.9-6.78,3.38c-2.85-0.48-3.56-1.44-4.33-4.99c-1.46-6.67,0.01-13.05,1.77-19.41
		C181.38,115.49,182.01,113.42,182.67,111.14 M202.85,148.46c-0.65,2.18-1.15,4.43-2,6.54c-0.77,1.88-1.93,3.59-4.1,4.26
		c-2.49,0.76-4.15,0.32-5.76-1.69c-0.76-0.94-1.41-1.97-2.17-2.91c-1.23-1.51-2.87-2.08-4.77-1.75c-1.91,0.33-2.51,1.87-2.8,3.47
		c-1.05,5.8-1.71,11.57,0.48,17.33c0.85,2.22,1.19,4.64,1.82,7.17c-4.24,0.98-8.2,1.86-12.15,2.81c-3.57,0.86-7.12,1.79-10.68,2.68
		h-3.83c-1.06-0.55-2.21-0.99-3.18-1.68c-3.55-2.52-3.42-6.37,0.25-8.7c0.86-0.55,1.78-1,2.63-1.56c1.79-1.18,2.39-2.51,1.4-4.39
		c-0.66-1.26-1.85-2.48-3.1-3.15c-3.74-2.01-7.84-2.56-12.05-2.09c-2.83,0.32-5.5,1.12-7.77,2.93c-2.39,1.91-2.21,4.49,0.39,6.03
		c1.86,1.1,3.8,2.07,5.64,3.21c1.54,0.96,2.18,2.41,1.93,4.25c-0.26,1.92-1.08,3.4-3,4.04c-1.26,0.41-2.55,0.73-3.82,1.09h-3.83
		c-4.94-0.9-9.89-1.78-14.83-2.7c-2.31-0.43-4.61-0.93-7.16-1.44c0.24-1.03,0.34-1.97,0.67-2.82c2.6-6.7,2.33-13.62,1.61-20.58
		c-0.08-0.82-0.28-1.64-0.51-2.43c-1.11-3.81-5.1-4.81-7.85-1.92c-1.04,1.1-1.88,2.41-2.75,3.67c-2.71,3.93-7.02,3.86-9.6-0.24
		c-2.51-3.99-3.27-8.38-2.73-13.03c0.39-3.3,1.45-6.34,3.47-8.99c2.23-2.92,6.03-3.22,8.69-0.69c1.01,0.96,1.87,2.09,2.84,3.1
		c2.79,2.88,5.6,2.63,8.04-0.47c1.82-2.31,2.3-4.83,2.24-7.68c-0.13-5.88-1.53-11.33-4.72-16.31c-0.47-0.74-0.82-1.55-1.29-2.45
		c0.57-0.21,0.96-0.4,1.37-0.49c7.82-1.85,15.63-3.78,23.49-5.46c1.85-0.39,4-0.28,5.81,0.28c4.43,1.36,5.43,5.97,2.07,9.16
		c-1.46,1.39-3.27,2.42-4.99,3.52c-3.87,2.49-3.97,5.7,0.13,7.84c6.09,3.17,12.47,3.64,18.72,0.4c1.34-0.69,2.55-2.14,3.19-3.53
		c0.95-2.04,0.26-3.61-1.56-5.02c-1.26-0.97-2.64-1.8-3.89-2.79c-2.17-1.73-2.93-4.14-2.16-6.45c0.79-2.35,3.02-4.08,5.74-3.96
		c2.4,0.1,4.82,0.51,7.18,1.01c5.8,1.23,11.59,2.55,17.36,3.91c2.74,0.64,2.7,0.71,1.96,3.52c-1.11,4.25-2.27,8.49-3.21,12.78
		c-0.86,3.92-0.55,7.85,0.32,11.76c0.43,1.93,1.42,3.06,3.4,3.31c2.15,0.27,4.12,0.04,5.42-1.94c0.7-1.06,1.21-2.25,1.89-3.32
		c1.96-3.08,6.14-3.52,8.44-0.66c1.28,1.59,2.02,3.63,2.93,5.51c0.35,0.72,0.51,1.55,0.75,2.32V148.46z"/>
</g>
<g>
	<defs>
		<rect id="SVGID_00000013160079062739542870000005330526229838357376_" x="90.66" y="771.81" width="110.56" height="91.93"/>
	</defs>
	<clipPath id="SVGID_00000153686435321610212140000007978498714199911567_">
		<use xlink:href="#SVGID_00000013160079062739542870000005330526229838357376_"  style="overflow:visible;"/>
	</clipPath>
	
		<path style="clip-path:url(#SVGID_00000153686435321610212140000007978498714199911567_);fill:none;stroke:#000000;stroke-miterlimit:10;" d="
		M164.46,789.53v-17.72 M155.73,793.42l-2.66-8.73 M150.58,796.98l-12.53-12.52 M144.91,802.41l-8.53-3.24 M145.4,809.29
		l-17.62-1.31 M164.49,790.93v-17.72 M173.22,794.82l2.66-8.73 M178.37,798.38l12.53-12.52 M184.04,803.82l8.53-3.23 M183.56,810.69
		l17.62-1.31 M183.86,818.4l8.72,2.68 M178.82,811.02c0,7.78-6.31,14.09-14.09,14.09s-14.09-6.31-14.09-14.09
		c0-7.78,6.31-14.09,14.09-14.09S178.82,803.24,178.82,811.02z M135.68,863.35c0,0,16.66-32.71,33.76-32.71s25.65,32.71,25.65,32.71
		 M91.1,863.52c0,0,22.19-44.97,44.98-44.97c22.78,0,34.17,44.97,34.17,44.97"/>
</g>
<g>
	<defs>
		<rect id="SVGID_00000137093493156679703190000013783249802814228363_" x="-271.82" y="452.65" width="117.42" height="83.82"/>
	</defs>
	<clipPath id="SVGID_00000106840382391650459120000014060411786541770656_">
		<use xlink:href="#SVGID_00000137093493156679703190000013783249802814228363_"  style="overflow:visible;"/>
	</clipPath>
	
		<path style="clip-path:url(#SVGID_00000106840382391650459120000014060411786541770656_);fill:none;stroke:#000000;stroke-miterlimit:10;" d="
		M-211.34,526.64c0,0,52.21-9.42,39.82-61.86C-171.53,464.78-223.02,470.51-211.34,526.64z M-212.83,535.52
		c0,0,52.42,8.22,57.89-45.39C-154.94,490.13-205.46,478.67-212.83,535.52z M-214.05,526.88c0,0-38.23-36.78,1.16-73.56
		C-212.9,453.32-173.22,486.64-214.05,526.88z M-216.01,527.16c0,0-52.21-9.42-39.82-61.86
		C-255.83,465.3-204.34,471.03-216.01,527.16z M-213.38,535.41c0,0-52.41,8.22-57.89-45.39
		C-271.28,490.02-220.75,478.56-213.38,535.41z"/>
</g>
<g>
	<g>
		<defs>
			<rect id="SVGID_00000148647889884992924650000004230744443106765209_" x="-272.23" y="790.69" width="118.25" height="95.51"/>
		</defs>
		<clipPath id="SVGID_00000055697576620840817610000015342091940535742102_">
			<use xlink:href="#SVGID_00000148647889884992924650000004230744443106765209_"  style="overflow:visible;"/>
		</clipPath>
		
			<path style="clip-path:url(#SVGID_00000055697576620840817610000015342091940535742102_);fill:none;stroke:#000000;stroke-miterlimit:10;" d="
			M-213.26,810.07c0,0,32.51-46.42,57.57,6.35c0,0,9.29,29.13-23.56,48.84l-34,20.36l-39.58-24.3c0,0-35.48-21.02-9.2-59.13
			C-262.04,802.18-234.12,773.27-213.26,810.07z"/>
		
			<path style="clip-path:url(#SVGID_00000055697576620840817610000015342091940535742102_);fill:none;stroke:#000000;stroke-miterlimit:10;" d="
			M-213.23,815.17c0,0,26.66-38.07,47.21,5.21c0,0,7.61,23.88-19.32,40.04l-27.88,16.7l-32.46-19.93c0,0-29.09-17.24-7.54-48.49
			C-253.23,808.71-230.34,785-213.23,815.17z"/>
		
			<path style="clip-path:url(#SVGID_00000055697576620840817610000015342091940535742102_);fill:none;stroke:#000000;stroke-miterlimit:10;" d="
			M-213.2,821.29c0,0,19.65-28.06,34.8,3.84c0,0,5.61,17.6-14.24,29.52l-20.56,12.31l-23.93-14.69c0,0-21.45-12.71-5.56-35.74
			C-242.69,816.52-225.81,799.05-213.2,821.29z"/>
		
			<path style="clip-path:url(#SVGID_00000055697576620840817610000015342091940535742102_);fill:none;stroke:#000000;stroke-miterlimit:10;" d="
			M-213.16,827.98c0,0,11.96-17.08,21.18,2.34c0,0,3.42,10.72-8.67,17.97l-12.51,7.49l-14.56-8.94c0,0-13.05-7.74-3.38-21.76
			C-231.11,825.08-220.84,814.44-213.16,827.98z"/>
	</g>
</g>
<g>
	<defs>
		<rect id="SVGID_00000097489917918238703010000015572624886691870129_" x="98.46" y="447.09" width="94.94" height="94.94"/>
	</defs>
	<clipPath id="SVGID_00000106119748938584198640000005940454914414363043_">
		<use xlink:href="#SVGID_00000097489917918238703010000015572624886691870129_"  style="overflow:visible;"/>
	</clipPath>
	<path style="clip-path:url(#SVGID_00000106119748938584198640000005940454914414363043_);fill:none;stroke:#000000;" d="
		M145.94,541.53c25.94,0,46.97-21.03,46.97-46.97c0-25.94-21.03-46.97-46.97-46.97s-46.97,21.03-46.97,46.97
		C98.97,520.5,119.99,541.53,145.94,541.53z"/>
	<path style="clip-path:url(#SVGID_00000106119748938584198640000005940454914414363043_);" d="M125.92,488.65
		c2.03,0,3.67-1.64,3.67-3.67s-1.64-3.67-3.67-3.67s-3.67,1.64-3.67,3.67S123.89,488.65,125.92,488.65"/>
	
		<circle style="clip-path:url(#SVGID_00000106119748938584198640000005940454914414363043_);fill:none;stroke:#000000;stroke-width:0.181;" cx="125.92" cy="484.98" r="3.67"/>
	<path style="clip-path:url(#SVGID_00000106119748938584198640000005940454914414363043_);" d="M165.96,488.65
		c2.03,0,3.67-1.64,3.67-3.67s-1.64-3.67-3.67-3.67c-2.03,0-3.67,1.64-3.67,3.67S163.93,488.65,165.96,488.65"/>
	
		<circle style="clip-path:url(#SVGID_00000106119748938584198640000005940454914414363043_);fill:none;stroke:#000000;stroke-width:0.181;" cx="165.96" cy="484.98" r="3.67"/>
	<path style="clip-path:url(#SVGID_00000106119748938584198640000005940454914414363043_);fill:none;stroke:#000000;" d="
		M113.05,491.67c0,17.52,14.72,31.72,32.89,31.72s32.89-14.2,32.89-31.72"/>
</g>
<g>
	<g>
		<defs>
			<rect id="SVGID_00000111170908634952526050000000223926541052048025_" x="-272.23" y="101.38" width="118.25" height="88.47"/>
		</defs>
		<clipPath id="SVGID_00000003822183653365576680000013481440325227433644_">
			<use xlink:href="#SVGID_00000111170908634952526050000000223926541052048025_"  style="overflow:visible;"/>
		</clipPath>
		<path style="clip-path:url(#SVGID_00000003822183653365576680000013481440325227433644_);fill:none;stroke:#000000;" d="
			M-271.73,164.1c0-24.25,26.25-43.92,58.63-43.92c32.38,0,58.63,19.66,58.63,43.92"/>
	</g>
	<line class="st8" x1="-258.87" y1="109.42" x2="-249.86" y2="118.07"/>
	<g>
		<defs>
			<rect id="SVGID_00000046340453329177643750000002243703448684342413_" x="-272.23" y="101.38" width="118.25" height="88.47"/>
		</defs>
		<clipPath id="SVGID_00000137113127072455865980000018223340863042005645_">
			<use xlink:href="#SVGID_00000046340453329177643750000002243703448684342413_"  style="overflow:visible;"/>
		</clipPath>
		
			<line style="clip-path:url(#SVGID_00000137113127072455865980000018223340863042005645_);fill:none;stroke:#000000;" x1="-240" y1="101.71" x2="-232.17" y2="110.89"/>
	</g>
	<line class="st8" x1="-182.07" y1="102.95" x2="-189.9" y2="112.14"/>
	<line class="st8" x1="-163.2" y1="110.67" x2="-172.21" y2="119.32"/>
	<g>
		<defs>
			<rect id="SVGID_00000119116798944844798740000010874290364777439628_" x="-272.23" y="101.38" width="118.25" height="88.47"/>
		</defs>
		<clipPath id="SVGID_00000152974476604637886270000011844758765151830186_">
			<use xlink:href="#SVGID_00000119116798944844798740000010874290364777439628_"  style="overflow:visible;"/>
		</clipPath>
		<path style="clip-path:url(#SVGID_00000152974476604637886270000011844758765151830186_);fill:none;stroke:#000000;" d="
			M-154.48,145.43c0,24.25-26.25,43.92-58.63,43.92c-32.38,0-58.63-19.66-58.63-43.92"/>
		<path style="clip-path:url(#SVGID_00000152974476604637886270000011844758765151830186_);" d="M-211.03,164.25
			c5.61,0,10.15-4.55,10.15-10.15c0-5.61-4.55-10.15-10.15-10.15s-10.15,4.55-10.15,10.15
			C-221.19,159.7-216.64,164.25-211.03,164.25"/>
		
			<circle style="clip-path:url(#SVGID_00000152974476604637886270000011844758765151830186_);fill:none;stroke:#000000;stroke-width:0.5;" cx="-211.03" cy="154.1" r="10.15"/>
	</g>
</g>
</svg>
